<?xml version="1.0" encoding="utf-8"?>
<!-- Generator: Adobe Illustrator 19.2.0, SVG Export Plug-In . SVG Version: 6.00 Build 0)  -->
<svg version="1.1" id="Calque_1" xmlns="http://www.w3.org/2000/svg" xmlns:xlink="http://www.w3.org/1999/xlink" x="0px" y="0px"
	 viewBox="0 0 567.7 277.5" style="enable-background:new 0 0 567.7 277.5;" xml:space="preserve">
<style type="text/css">
	.st0{fill:#FF0000;}
</style>
<g>
	<path class="st0" d="M567.7,277.5H0V0h567.7V277.5z M10.4,267.1h546.9V10.4H10.4V267.1z"/>
	<g>
		<path class="st0" d="M110.3,95.4c0,6.5-0.7,12.3-2.1,17.5c-1.4,5.2-3.6,9.7-6.5,13.4c-2.9,3.7-6.6,6.6-11.1,8.6
			c-4.5,2-9.8,3-15.9,3H50.6V52.3h24.1c6.1,0,11.4,1,15.9,3s8.2,4.9,11.1,8.7c2.9,3.8,5.1,8.3,6.5,13.6
			C109.5,82.8,110.3,88.8,110.3,95.4z M90.8,95.4c0-8.6-1.5-15.2-4.4-19.6c-2.9-4.4-6.8-6.6-11.4-6.6h-4.7v51.8h4.7
			c4.7,0,8.5-2.2,11.4-6.6C89.3,110.1,90.8,103.7,90.8,95.4z"/>
		<path class="st0" d="M176.9,119.6c-1.1,4.1-2.8,7.7-5.1,10.8c-2.3,3.1-5.4,5.5-9.1,7.3c-3.7,1.8-8.2,2.7-13.4,2.7
			c-5.2,0-9.7-0.9-13.3-2.7c-3.6-1.8-6.6-4.2-8.9-7.3c-2.3-3.1-4-6.7-5-10.8c-1-4.1-1.5-8.6-1.5-13.3v-54H140v52.3
			c0,2.4,0.1,4.7,0.4,6.8c0.3,2.1,0.8,3.9,1.5,5.4c0.7,1.5,1.7,2.7,2.9,3.6c1.2,0.9,2.8,1.3,4.7,1.3c1.9,0,3.5-0.4,4.7-1.3
			c1.2-0.9,2.2-2.1,2.9-3.6c0.7-1.5,1.2-3.3,1.5-5.4c0.3-2.1,0.4-4.4,0.4-6.8V52.3h19.4v54C178.5,111.1,178,115.5,176.9,119.6z"/>
		<path class="st0" d="M251.4,138l0.7-58.8h-0.5L237.2,138h-13.7l-13.9-58.8h-0.4l0.6,58.8h-17.6V52.3h24.5l13.8,55.2h0.5l13.4-55.2
			h25.9V138H251.4z"/>
		<path class="st0" d="M339.5,113.6c0,4.6-0.7,8.5-2.2,11.6c-1.5,3.1-3.4,5.6-5.9,7.5c-2.4,1.9-5.1,3.3-8.2,4.1s-6.1,1.3-9.1,1.3
			h-28.4V52.3h25.7c2.7,0,5.5,0.3,8.5,0.8c3,0.6,5.7,1.6,8.2,3.2c2.5,1.6,4.5,3.8,6.2,6.7c1.7,2.9,2.5,6.7,2.5,11.3
			c0,5.1-1,9.1-3.1,12.2c-2.1,3-4.6,5.2-7.6,6.6v0.2c1.6,0.4,3.2,1.1,4.8,2.2c1.6,1.1,3.1,2.4,4.4,4.1c1.3,1.7,2.3,3.7,3.1,6
			C339.1,107.9,339.5,110.6,339.5,113.6z M319.5,77.4c0-3.3-0.9-5.7-2.8-7.1c-1.9-1.4-4-2.1-6.5-2.1h-6.5v18.6h6.7
			c2.3,0,4.5-0.7,6.4-2.2C318.6,83.3,319.5,80.8,319.5,77.4z M321.1,111.8c0-1.9-0.3-3.6-0.9-4.9c-0.6-1.3-1.4-2.4-2.4-3.3
			c-1-0.9-2.1-1.5-3.4-1.9c-1.3-0.4-2.5-0.6-3.7-0.6h-7V122h7.3c2.8,0,5.2-0.9,7.2-2.6C320.1,117.8,321.1,115.2,321.1,111.8z"/>
		<path class="st0" d="M351.5,138V52.3h41.4v17.1H370v16.8h21.1v16H370v18.4h24.3V138H351.5z"/>
		<path class="st0" d="M441.2,72.8c-1.5-1.7-3.1-3-5.1-3.9c-1.9-0.9-4-1.4-6.1-1.4c-2.2,0-4.1,0.7-5.9,2.1c-1.7,1.4-2.6,3.6-2.6,6.8
			c0,2.7,0.9,4.7,2.7,6.2c1.8,1.5,4.4,3.1,7.9,4.9c2,1,4,2.1,6.2,3.5c2.2,1.3,4.1,3,5.9,4.9c1.8,1.9,3.3,4.3,4.5,7
			c1.2,2.7,1.8,5.9,1.8,9.6c0,4.6-0.7,8.7-2.2,12.2c-1.5,3.5-3.4,6.4-5.9,8.7c-2.5,2.3-5.3,4-8.6,5.2c-3.2,1.2-6.6,1.8-10.1,1.8
			c-5.2,0-9.9-1-14.1-2.9c-4.2-1.9-7.6-4.2-10.2-6.8l9.9-14.5c1.9,1.9,4,3.5,6.4,4.7c2.4,1.2,4.9,1.8,7.4,1.8c2.3,0,4.3-0.8,5.9-2.3
			c1.6-1.5,2.4-3.7,2.4-6.4c0-2.8-1-5.1-2.9-6.7c-1.9-1.7-4.8-3.4-8.5-5.3c-2.3-1.1-4.5-2.4-6.6-3.8c-2.1-1.4-3.9-3-5.5-5
			c-1.6-1.9-2.8-4.2-3.7-6.8c-0.9-2.6-1.3-5.7-1.3-9.2c0-4.8,0.8-8.9,2.4-12.3c1.6-3.4,3.6-6.2,6.2-8.4c2.5-2.2,5.4-3.8,8.5-4.8
			c3.1-1,6.2-1.6,9.4-1.6c4.7,0,8.9,0.8,12.6,2.3c3.7,1.5,6.8,3.6,9.3,6.3L441.2,72.8z"/>
		<path class="st0" d="M487.8,68.8V138h-19V68.8h-15.7V52.3h50.5v16.5H487.8z"/>
		<path d="M48.5,221v-61.9h14.1V221H48.5z"/>
		<path d="M100.3,221L86,183.3h-0.3l0.4,37.7H73.6v-61.9h15.4l14.3,38.2h0.3l-0.3-38.2h12.1V221H100.3z"/>
		<path d="M161.2,171v50h-13.7v-50h-11.4v-11.9h36.5V171H161.2z"/>
		<path d="M206.3,221v-25.9h-14.4V221H178v-61.9h13.9v23.4h14.4v-23.4h13.9V221H206.3z"/>
		<path d="M231.2,221v-61.9h29.9v12.3h-16.5v12.2h15.2v11.5h-15.2v13.3h17.6V221H231.2z"/>
		<path d="M313.7,221l-8.3-24.7h-4.1V221h-13.5v-61.9h19.8c6,0,10.6,1.6,14,4.7c3.3,3.1,5,7.8,5,13.9c0,2.3-0.3,4.3-0.8,6.1
			c-0.5,1.8-1.2,3.4-2,4.6c-0.8,1.3-1.8,2.3-2.8,3.1c-1,0.8-2.1,1.4-3,1.7l10.6,27.6H313.7z M312.9,178.5c0-1.6-0.2-2.9-0.7-3.8
			c-0.4-1-1-1.8-1.7-2.4c-0.7-0.6-1.5-1-2.3-1.2c-0.8-0.2-1.7-0.3-2.5-0.3h-4.4v15.7h4.1c2,0,3.7-0.6,5.2-1.9
			C312.1,183.3,312.9,181.3,312.9,178.5z"/>
		<path d="M380.2,189.9c0,4.9-0.6,9.4-1.7,13.4c-1.1,4-2.7,7.5-4.7,10.4c-2,2.9-4.5,5.1-7.5,6.6c-2.9,1.6-6.3,2.4-9.9,2.4
			c-3.7,0-7-0.8-9.9-2.4c-2.9-1.6-5.4-3.8-7.5-6.6c-2-2.9-3.6-6.3-4.7-10.4c-1.1-4.1-1.7-8.5-1.7-13.4c0-4.9,0.5-9.3,1.6-13.3
			c1.1-4,2.6-7.4,4.7-10.2c2-2.8,4.5-5,7.5-6.6c2.9-1.5,6.3-2.3,10-2.3c3.7,0,7,0.8,9.9,2.3c2.9,1.5,5.4,3.7,7.5,6.6
			c2,2.8,3.6,6.2,4.7,10.2C379.7,180.5,380.2,185,380.2,189.9z M365.9,189.9c0-2.7-0.2-5.2-0.6-7.5c-0.4-2.3-1-4.3-1.8-6
			c-0.8-1.7-1.8-3-2.9-4c-1.2-1-2.5-1.4-4.1-1.4c-1.6,0-3,0.5-4.2,1.4c-1.2,1-2.2,2.3-3,4c-0.8,1.7-1.4,3.7-1.7,6
			c-0.4,2.3-0.6,4.8-0.6,7.5c0,2.7,0.2,5.2,0.6,7.5c0.4,2.3,1,4.3,1.7,6c0.8,1.7,1.8,3,3,4c1.2,1,2.6,1.5,4.2,1.5
			c1.6,0,2.9-0.5,4.1-1.5c1.2-1,2.1-2.3,2.9-4c0.8-1.7,1.4-3.7,1.8-6C365.7,195.1,365.9,192.6,365.9,189.9z"/>
		<path d="M433.7,189.9c0,4.9-0.6,9.4-1.7,13.4c-1.1,4-2.7,7.5-4.7,10.4c-2,2.9-4.5,5.1-7.5,6.6c-2.9,1.6-6.3,2.4-9.9,2.4
			c-3.7,0-7-0.8-9.9-2.4c-2.9-1.6-5.4-3.8-7.5-6.6c-2-2.9-3.6-6.3-4.7-10.4c-1.1-4.1-1.7-8.5-1.7-13.4c0-4.9,0.5-9.3,1.6-13.3
			c1.1-4,2.6-7.4,4.7-10.2c2-2.8,4.5-5,7.5-6.6c2.9-1.5,6.3-2.3,10-2.3c3.7,0,7,0.8,9.9,2.3c2.9,1.5,5.4,3.7,7.5,6.6
			c2,2.8,3.6,6.2,4.7,10.2C433.2,180.5,433.7,185,433.7,189.9z M419.4,189.9c0-2.7-0.2-5.2-0.6-7.5c-0.4-2.3-1-4.3-1.8-6
			c-0.8-1.7-1.8-3-2.9-4c-1.2-1-2.5-1.4-4.1-1.4s-3,0.5-4.2,1.4c-1.2,1-2.2,2.3-3,4c-0.8,1.7-1.4,3.7-1.7,6
			c-0.4,2.3-0.6,4.8-0.6,7.5c0,2.7,0.2,5.2,0.6,7.5c0.4,2.3,1,4.3,1.7,6c0.8,1.7,1.8,3,3,4c1.2,1,2.6,1.5,4.2,1.5s2.9-0.5,4.1-1.5
			c1.2-1,2.1-2.3,2.9-4c0.8-1.7,1.4-3.7,1.8-6C419.2,195.1,419.4,192.6,419.4,189.9z"/>
		<path d="M484.9,221l0.5-42.5h-0.4L474.7,221h-9.9l-10.1-42.5h-0.3l0.4,42.5h-12.7v-61.9h17.7l10,39.9h0.4l9.7-39.9h18.7V221H484.9
			z"/>
	</g>
</g>
</svg>
