<?xml version="1.0" encoding="utf-8"?>
<!-- Generator: Adobe Illustrator 21.0.2, SVG Export Plug-In . SVG Version: 6.00 Build 0)  -->
<svg version="1.1" id="Layer_1" xmlns="http://www.w3.org/2000/svg" xmlns:xlink="http://www.w3.org/1999/xlink" x="0px" y="0px"
	 viewBox="0 0 1500 750" style="enable-background:new 0 0 1500 750;" xml:space="preserve">
<style type="text/css">
	.st0{enable-background:new    ;}
	.st1{fill:#003333;}
</style>
<g class="st0">
	<path class="st1" d="M226.1,355.9V169.8h68.3c38,0,61.7,23.4,61.7,60.6v64.9c0,37-23.7,60.6-61.7,60.6H226.1z M261.7,324.2h32.7
		c16.7,0,25.8-10.9,25.8-32.2v-58.5c0-21.3-9-32.2-25.8-32.2h-32.7V324.2z"/>
	<path class="st1" d="M477.9,310.9V169.8h35.9v186.1h-33.2l-2.7-13.3c-9,9.3-23.9,17-41.2,17c-37.2,0-52.6-20.2-52.6-58V169.8h36.2
		v128.4c0,21.3,7.4,30.6,25,30.6C459.3,328.8,471.8,320.5,477.9,310.9z"/>
	<path class="st1" d="M543.3,169.8h24.5l54.2,104l54.2-104h24.7v186.1h-35.9l1.3-99.2l-36.2,69.4h-18.1l-34.6-66.7l1.1,96.5h-35.4
		V169.8z"/>
	<path class="st1" d="M803,355.9h-72.3V169.8h68.1c38.6,0,56.6,16,56.6,49.5v6.1c0,10.6-6.4,26.1-18.3,33.2
		c12.8,4.3,23.9,20.5,23.9,37.8v10.9C861,335.1,842.9,355.9,803,355.9z M802,246.3c10.4,0,17.5-7.2,17.5-22.1v-1.6
		c-0.3-17.3-6.9-21.8-22.3-21.8h-30.8v45.5H802z M796.9,325c17.8-0.3,28.2-8.5,28.2-20.2v-9.3c0-13-7.2-21-19.7-21h-39.1V325H796.9z
		"/>
	<path class="st1" d="M886,169.8h110.9v31.6h-75.2v44.4h62.7v31.1h-62.7v47.6h77.1v31.4H886V169.8z"/>
	<path class="st1" d="M1081.7,328c21.8,0,34.6-9.8,34.6-24.2c0-15.2-10.6-22.3-34-25.5c-31.6-4.5-55.3-19.4-55.3-57.2
		c0-31.6,21.8-54.8,60.6-54.8c24.2,0,40.4,6.9,56.9,18.3l-13.8,26.1c-14.4-8-25.5-13-42.5-13c-18.6,0-26.6,9.8-26.6,22.3
		c0,17.8,12.8,22.9,32.4,25.8c29,4.3,57.4,16.8,57.4,55.6c0,33-22.1,58-68.3,58c-24.5,0-45.7-7.7-61.7-18.9l13.8-26.1
		C1049.2,322.1,1064.4,328,1081.7,328z"/>
	<path class="st1" d="M1204,201.1h-46.5v-31.4h129.2v31.4h-46.8v154.7H1204V201.1z"/>
</g>
<g class="st0">
	<path class="st1" d="M220.8,430.1h9.1V534h-9.1V430.1z"/>
	<path class="st1" d="M249.1,430.1h9.3l49.6,86.7l-0.1-86.7h9.1V534h-9.5l-49.7-86.7l0.4,86.7h-9.1V430.1z"/>
	<path class="st1" d="M390.8,439h-29.1v-8.9h67.2v8.9h-29.1v95h-9.1V439z"/>
	<path class="st1" d="M439.6,430.1h9.1v45.4h47.2v-45.4h9.1V534h-9.1v-49.6h-47.2V534h-9.1V430.1z"/>
	<path class="st1" d="M524.2,430.1H580v9.1h-46.7v37.2h39v8.9h-39v39.8h47.9v8.9h-57V430.1z"/>
	<path class="st1" d="M662.1,490.5c-8.3,0-15.4-0.4-23.1-2.7V534h-9.1V430.1h34.7c18.8,0,30.6,12,30.6,27.5v5.8
		c0,12.8-8.9,23.7-23.3,26.6l16.6,30.9c4.5,8.3,9.1,7.7,13.2,6.5v7.3c-10.5,2.1-16,1.2-23.4-13.1L662.1,490.5z M638.9,479.4
		c8.6,2.1,16.5,2.7,25.7,2.7c13.8,0,21.5-9.1,21.5-20.8v-1.8c0-12.2-7.7-20.3-21.5-20.3h-25.7V479.4z"/>
	<path class="st1" d="M708.5,460.1c0-19.9,15.1-32.1,34.1-32.1c18.8,0,34,12.2,34,32.1V504c0,19.9-15.1,32.1-34,32.1
		c-19,0-34.1-12.2-34.1-32.1V460.1z M717.6,501.9c0,16.5,11.3,25.2,25.1,25.2c13.8,0,24.9-8.8,24.9-25.2v-39.8
		c0-16.5-11.1-25.2-24.9-25.2c-13.8,0-25.1,8.8-25.1,25.2V501.9z"/>
	<path class="st1" d="M794.4,460.1c0-19.9,15.1-32.1,34.1-32.1c18.8,0,34,12.2,34,32.1V504c0,19.9-15.1,32.1-34,32.1
		c-19,0-34.1-12.2-34.1-32.1V460.1z M803.5,501.9c0,16.5,11.3,25.2,25.1,25.2c13.8,0,24.9-8.8,24.9-25.2v-39.8
		c0-16.5-11.1-25.2-24.9-25.2c-13.8,0-25.1,8.8-25.1,25.2V501.9z"/>
	<path class="st1" d="M881.1,430.1h8l32.8,67.7l32.8-67.7h8.3V534h-9.1l0.3-83.4l-29.4,60.1h-6.2l-28.8-59.2l0.3,82.5h-9.1V430.1z"
		/>
</g>
<path class="st1" d="M1259.1,390c-0.7-2.3-2.5-4-4.7-4.7c-2.3-0.7-4.7-0.2-6.5,1.3l-28.3,23.1l-30.9-8.2c-3.6-1-7.4,1.1-8.6,4.7
	l-18.3,55.9l-28.3-40.2c-1.5-2.1-3.9-3.2-6.5-3l-34.2,3.3l-25.6-42.6c-1.1-1.8-2.9-3-4.9-3.4c-2.1-0.3-4.2,0.3-5.8,1.6l-28.8,24.7
	l-12.8-34.2c-1-2.6-3.4-4.4-6.2-4.6s-5.4,1.3-6.7,3.9c-10.4,20.3-15.6,42.1-15.6,64.9c0,26.2,12.6,59,24.5,76.6
	c8.6,12.7,15.6,22.3,21.3,29.9c14,19,19.3,26.1,21.3,44.3c2.9,25.2,12.8,37.6,20.1,43.4c-4.7,4.4-7.7,10.6-7.7,17.6v11.3
	c0,0.4,0.1,0.8,0.1,1.2c-0.1,0.4-0.1,0.8-0.1,1.2v8.9l0,0v11.3l0,0v2.4c0,1.1,0.3,2.1,0.7,3c2.5,10.7,12,18.7,23.5,18.7h0.5
	c2.6,5,8.4,10.7,12.4,10.7h54.1c3.9,0,9.7-5.6,12.4-10.7h0.5c11.4,0,21-8,23.5-18.7c0.4-0.9,0.7-1.9,0.7-3v-2.5v-11.3v-9
	c0-0.4-0.1-0.8-0.1-1.2s0.1-0.8,0.1-1.2v-11.3c0-8.3-4.2-15.5-10.5-19.9c7-6.5,15-18.8,17.3-41.1c2-18.9,7-25.8,21.9-46.4
	c5.2-7.2,11.8-16.3,19.6-27.9c13.3-19.7,23.3-52.6,23.3-76.6C1265.5,417.9,1263.3,403.7,1259.1,390z M1179.7,644.9
	c-3-1.4-6.4-2.2-9.9-2.2H1090c-3.5,0-6.9,0.8-9.9,2.2v-0.7c0-5.5,4.5-9.9,9.9-9.9h79.8c5.5,0,9.9,4.5,9.9,9.9V644.9z M1177.9,661.1
	c-1.8,2.6-4.8,4.2-8.1,4.2H1090c-3.4,0-6.3-1.7-8.1-4.2c1.8-2.6,4.8-4.2,8.1-4.2h79.8C1173.1,656.9,1176.1,658.6,1177.9,661.1z
	 M1169.7,688.1h-79.8c-5.5,0-9.9-4.4-9.9-9.9v-0.8c3,1.4,6.4,2.2,9.9,2.2h79.8c3.5,0,6.9-0.8,9.9-2.2v0.7
	C1179.7,683.6,1175.2,688.1,1169.7,688.1z M1230.4,501c-7.7,11.4-14.2,20.3-19.3,27.5c-15.2,21-22.1,30.6-24.5,53.2
	c-2.8,26.9-14.5,34.2-17.7,35.7h-83.8c-2.9-1.4-14.6-8.8-17.7-35.8c-2.5-22-9.7-31.8-24-51.2c-5.6-7.6-12.5-17-21-29.4
	c-10.8-16-22-46.1-22-68.6c0-14.7,2.4-29,7.3-42.7l10.2,27.2c0.8,2.2,2.6,3.8,4.9,4.4c2.2,0.6,4.6,0,6.4-1.5l30.1-25.8l23.6,39.3
	c1.4,2.3,4,3.7,6.8,3.4l34.5-3.4l34.1,48.4c1.5,2.2,4.2,3.4,6.9,2.9c2.7-0.4,4.9-2.3,5.7-4.8l20.6-63l27.9,7.4
	c2.2,0.6,4.6,0.1,6.3-1.4l22.6-18.4c2,9.1,3,18.4,3,27.8C1251.3,453.5,1242.1,483.7,1230.4,501z"/>
</svg>
