<?xml version="1.0" encoding="utf-8"?>
<!-- Generator: Adobe Illustrator 19.2.0, SVG Export Plug-In . SVG Version: 6.00 Build 0)  -->
<svg version="1.1" id="Layer_1" xmlns="http://www.w3.org/2000/svg" xmlns:xlink="http://www.w3.org/1999/xlink" x="0px" y="0px"
	 viewBox="0 0 1500 750" style="enable-background:new 0 0 1500 750;" xml:space="preserve">
<style type="text/css">
	.st0{fill:#003333;}
	.st1{font-family:'Darwin-Bold';}
	.st2{font-size:265.8676px;}
	.st3{font-family:'Darwin-ExtraLight';}
	.st4{font-size:148.3913px;}
</style>
<text transform="matrix(1 0 0 1 210.9604 355.8702)" class="st0 st1 st2">DUMBEST</text>
<text transform="matrix(1 0 0 1 210.9604 533.9702)" class="st0 st3 st4">IN THE ROOM</text>
<path class="st0" d="M1259.1,390c-0.7-2.3-2.5-4-4.7-4.7c-2.3-0.7-4.7-0.2-6.5,1.3l-28.3,23.1l-30.9-8.2c-3.6-1-7.4,1.1-8.6,4.7
	l-18.3,55.9l-28.3-40.2c-1.5-2.1-3.9-3.2-6.5-3l-34.2,3.3l-25.6-42.6c-1.1-1.8-2.9-3-4.9-3.4c-2.1-0.3-4.2,0.3-5.8,1.6l-28.8,24.7
	l-12.8-34.2c-1-2.6-3.4-4.4-6.2-4.6c-2.8-0.2-5.4,1.3-6.7,3.9c-10.4,20.3-15.6,42.1-15.6,64.9c0,26.2,12.6,59,24.5,76.6
	c8.6,12.7,15.6,22.3,21.3,29.9c14,19,19.3,26.1,21.3,44.3c2.9,25.2,12.8,37.6,20.1,43.4c-4.7,4.4-7.7,10.6-7.7,17.6v11.3
	c0,0.4,0.1,0.8,0.1,1.2c-0.1,0.4-0.1,0.8-0.1,1.2v8.9c0,0,0,0,0,0v11.3c0,0,0,0,0,0v2.4c0,1.1,0.3,2.1,0.7,3
	c2.5,10.7,12,18.7,23.5,18.7h0.5c2.6,5,8.4,10.7,12.4,10.7h54.1c3.9,0,9.7-5.6,12.4-10.7h0.5c11.4,0,21-8,23.5-18.7
	c0.4-0.9,0.7-1.9,0.7-3v-2.5v-11.3v-9c0-0.4-0.1-0.8-0.1-1.2c0-0.4,0.1-0.8,0.1-1.2v-11.3c0-8.3-4.2-15.5-10.5-19.9
	c7-6.5,15-18.8,17.3-41.1c2-18.9,7-25.8,21.9-46.4c5.2-7.2,11.8-16.3,19.6-27.9c13.3-19.7,23.3-52.6,23.3-76.6
	C1265.5,417.9,1263.3,403.7,1259.1,390z M1179.7,644.9c-3-1.4-6.4-2.2-9.9-2.2h-79.8c-3.5,0-6.9,0.8-9.9,2.2v-0.7
	c0-5.5,4.5-9.9,9.9-9.9h79.8c5.5,0,9.9,4.5,9.9,9.9V644.9z M1177.9,661.1c-1.8,2.6-4.8,4.2-8.1,4.2h-79.8c-3.4,0-6.3-1.7-8.1-4.2
	c1.8-2.6,4.8-4.2,8.1-4.2h79.8C1173.1,656.9,1176.1,658.6,1177.9,661.1z M1169.7,688.1h-79.8c-5.5,0-9.9-4.4-9.9-9.9v-0.8
	c3,1.4,6.4,2.2,9.9,2.2h79.8c3.5,0,6.9-0.8,9.9-2.2v0.7C1179.7,683.6,1175.2,688.1,1169.7,688.1z M1230.4,501
	c-7.7,11.4-14.2,20.3-19.3,27.5c-15.2,21-22.1,30.6-24.5,53.2c-2.8,26.9-14.5,34.2-17.7,35.7h-83.8c-2.9-1.4-14.6-8.8-17.7-35.8
	c-2.5-22-9.7-31.8-24-51.2c-5.6-7.6-12.5-17-21-29.4c-10.8-16-22-46.1-22-68.6c0-14.7,2.4-29,7.3-42.7l10.2,27.2
	c0.8,2.2,2.6,3.8,4.9,4.4c2.2,0.6,4.6,0,6.4-1.5l30.1-25.8l23.6,39.3c1.4,2.3,4,3.7,6.8,3.4l34.5-3.4l34.1,48.4
	c1.5,2.2,4.2,3.4,6.9,2.9c2.7-0.4,4.9-2.3,5.7-4.8l20.6-63l27.9,7.4c2.2,0.6,4.6,0.1,6.3-1.4l22.6-18.4c2,9.1,3,18.4,3,27.8
	C1251.3,453.5,1242.1,483.7,1230.4,501z"/>
</svg>
