<svg xmlns="http://www.w3.org/2000/svg" xmlns:xlink="http://www.w3.org/1999/xlink" version="1.1" x="0px" y="0px" viewBox="0 0 100 125" enable-background="new 0 0 100 100" xml:space="preserve"><polyline fill="none" stroke="#000000" stroke-miterlimit="10" points="20,29.774 34.961,44.51 39.91,39.561 54.869,54.634   59.82,49.685 74.893,64.758 "/><polygon points="80,59.726 80,69.726 70.049,69.707 "/><polyline fill="none" stroke="#000000" stroke-miterlimit="10" points="10,42.774 24.961,57.51 29.91,52.561 44.869,67.634   49.82,62.685 64.893,77.758 "/><polygon points="70,72.726 70,82.726 60.049,82.707 "/><polyline fill="none" stroke="#000000" stroke-miterlimit="10" points="30.002,17.274 44.963,32.01 49.912,27.061 64.871,42.134   69.822,37.185 84.895,52.258 "/><polygon points="90,47.226 90,57.226 80.049,57.207 "/><text x="0" y="115" fill="#000000" font-size="5px" font-weight="bold" font-family="'Helvetica Neue', Helvetica, Arial-Unicode, Arial, Sans-serif">Created by Prasad</text><text x="0" y="120" fill="#000000" font-size="5px" font-weight="bold" font-family="'Helvetica Neue', Helvetica, Arial-Unicode, Arial, Sans-serif">from the Noun Project</text></svg>